<svg xmlns="http://www.w3.org/2000/svg" viewBox="0 0 377.45 261"><defs><style>.cls-1{fill:#fff;}.cls-2{fill:#484545;}.cls-3{fill:#464646;}</style></defs><title>no-image</title><g id="Layer_2" data-name="Layer 2"><g id="Layer_1-2" data-name="Layer 1"><rect class="cls-1" width="377.45" height="261"/><g id="Layer_1-2-2" data-name="Layer 1-2"><path class="cls-2" d="M121.41,158.76h3l8.78,20.56V158.76h3.59v30.91H134l-8.93-21.11v21.11h-3.67Z"/><path class="cls-2" d="M143,187.44a12.08,12.08,0,0,1-2-7.46V168.27a11.54,11.54,0,0,1,2-7.39,7.85,7.85,0,0,1,6.49-2.48,7.71,7.71,0,0,1,6.47,2.5,11.48,11.48,0,0,1,2,7.28V180a11.91,11.91,0,0,1-2,7.4,9.43,9.43,0,0,1-13,.06Zm9.75-2.12a8.4,8.4,0,0,0,.85-4.24V167.37a7.9,7.9,0,0,0-.85-4.24,3.5,3.5,0,0,0-3.24-1.36,3.62,3.62,0,0,0-3.29,1.36,8.3,8.3,0,0,0-.83,4.24v13.56a8.73,8.73,0,0,0,.83,4.24,3.51,3.51,0,0,0,3.29,1.4,3.42,3.42,0,0,0,3.24-1.35Z"/><path class="cls-2" d="M171.14,158.76h4.24v30.91h-4.24Z"/><path class="cls-2" d="M180.88,158.76h4.24l5.45,25.1,5.5-25.1h4.24l.58,30.93h-3.53L197,167.25l-5.21,22.42h-2.47l-5.17-22.42-.36,22.44h-3.5Z"/><path class="cls-2" d="M210.39,158.76h4.24l6.6,30.93h-4.07l-1.42-7.78h-6.37l-1.48,7.78h-4Zm4.69,20.07-2.57-14L210,178.81Z"/><path class="cls-2" d="M225.52,187.4a13.57,13.57,0,0,1-1.87-7.87V169.18a19.23,19.23,0,0,1,.74-5.9,6.59,6.59,0,0,1,2.55-3.57,8.9,8.9,0,0,1,5-1.23,7.78,7.78,0,0,1,6.17,2.13,10.35,10.35,0,0,1,2,6.89v1.15h-4.24v-1a17.68,17.68,0,0,0-.25-3.41,3,3,0,0,0-1.13-1.83,4.34,4.34,0,0,0-2.54-.61,3.39,3.39,0,0,0-3.79,2.95.19.19,0,0,0,0,.08,21.28,21.28,0,0,0-.26,3.65V180a11.31,11.31,0,0,0,.87,5.11,3.46,3.46,0,0,0,3.29,1.53,3.4,3.4,0,0,0,3.31-1.68,12,12,0,0,0,.89-5.39v-2.12h-3.84v-3.05h7.83v15.29h-2.71l-.43-3.54a5.41,5.41,0,0,1-5.47,3.92A6.88,6.88,0,0,1,225.52,187.4Z"/><path class="cls-2" d="M244.66,158.76h12V162H249v10.23h6.24v3.06H249v11.35h7.75v3.07h-12Z"/><path class="cls-2" d="M119.16,204.57h7.68a7.15,7.15,0,0,1,5.81,2.12,9.7,9.7,0,0,1,1.83,6.36,8.32,8.32,0,0,1-1.95,6,7.35,7.35,0,0,1-5.65,2.13H123.4v14.38h-4.24ZM125.53,218a7.93,7.93,0,0,0,3-.43,2.72,2.72,0,0,0,1.5-1.44,8,8,0,0,0,.45-3,12.37,12.37,0,0,0-.41-3.48,2.41,2.41,0,0,0-1.35-1.57,8.5,8.5,0,0,0-3.16-.45H123.4V218Z"/><path class="cls-2" d="M137.49,204.57h6.22a10.28,10.28,0,0,1,6.89,1.93,8,8,0,0,1,2.12,6.36c0,4-1.27,6.37-3.81,7.24l4.39,15.49h-4.25L145,221.07h-3.2v14.52h-4.25Zm6,13.34a6,6,0,0,0,4-1.1,5.31,5.31,0,0,0,1.21-4,8.63,8.63,0,0,0-.42-3,2.89,2.89,0,0,0-1.49-1.6,7,7,0,0,0-3-.53H141.8v10.25Z"/><path class="cls-2" d="M158.71,233.27a12.11,12.11,0,0,1-2-7.47V214.09a11.43,11.43,0,0,1,2-7.3,7.85,7.85,0,0,1,6.49-2.48,7.75,7.75,0,0,1,6.47,2.51,11.51,11.51,0,0,1,2,7.27v11.76a12,12,0,0,1-2,7.4,7.57,7.57,0,0,1-6.36,2.61A7.65,7.65,0,0,1,158.71,233.27Zm9.76-2.23a8.61,8.61,0,0,0,.82-4.24V213.2a8.27,8.27,0,0,0-.82-4.24,4.61,4.61,0,0,0-6.54,0,8.4,8.4,0,0,0-.85,4.24v13.56a8.75,8.75,0,0,0,.85,4.24,4.56,4.56,0,0,0,6.54,0Z"/><path class="cls-2" d="M176.44,204.57h4.06l4.9,22.8,4.64-22.8h4l-6.94,30.93h-3.77Z"/><path class="cls-2" d="M197.41,204.57h4.24V235.5h-4.24Z"/><path class="cls-2" d="M206.66,204.57h6.72a9.24,9.24,0,0,1,7.07,2.29,10.32,10.32,0,0,1,2.12,7.15v11.37a12,12,0,0,1-2.12,7.64,8.27,8.27,0,0,1-6.77,2.48h-7Zm6.74,27.85a4.86,4.86,0,0,0,3.36-.89,3.84,3.84,0,0,0,1.27-2.37,35.82,35.82,0,0,0,.15-4.63v-10a19.46,19.46,0,0,0-.32-4,3.12,3.12,0,0,0-1.36-2.12,6,6,0,0,0-3.2-.66H211v24.69Z"/><path class="cls-2" d="M226.77,204.57h12v3.22H231.1V218h6.21v3H231.1v11.35h7.74v3.08H226.77Z"/><path class="cls-2" d="M242.32,204.57h6.73a9.26,9.26,0,0,1,7.08,2.29,10.44,10.44,0,0,1,2.13,7.15v11.37a11.84,11.84,0,0,1-2.13,7.64,8.25,8.25,0,0,1-6.76,2.48h-7.05Zm6.75,27.85a4.84,4.84,0,0,0,3.27-.89,3.84,3.84,0,0,0,1.27-2.37,31.16,31.16,0,0,0,.23-4.63v-10a18.8,18.8,0,0,0-.32-4,3.11,3.11,0,0,0-1.35-2.12,5.88,5.88,0,0,0-3.21-.66h-2.33v24.69Z"/><path class="cls-3" d="M244,136.25H133.12V25.1H244ZM241.58,27.66H135.86V133.3H241.58Z"/><path class="cls-3" d="M141.5,33.24h94.22v94.23H141.5Zm2.72,2.46v83.72l16.63-25.94,8.3,9,26.24-28.58,37.49,43.33V35.7Zm50.92,41.82-25.06,28.2q6.75,10.61,12.33,19.26h53.44ZM144.62,125h34.43L161.3,97.44Z"/><path class="cls-3" d="M174.92,67.06c-1,5.9-4.08,9.7-9.87,9.53a8.82,8.82,0,0,1-9.21-8.42,9.14,9.14,0,0,1,0-1.17,8.84,8.84,0,0,1,8.41-9.23,9.3,9.3,0,0,1,1.18,0C171.27,57.9,174.05,61.89,174.92,67.06ZM172,66.87c-.72-4.07-3-6.6-7.28-6.36a6.11,6.11,0,0,0-6.12,6.09c0,.14,0,.28,0,.42a6.18,6.18,0,0,0,5.4,6.86,6.09,6.09,0,0,0,1.35,0C169.59,73.75,171.69,71,172,66.87Z"/></g></g></g></svg>